# xmcd
#
# Track frame offsets: 
#        150
#        14634
#        49274
#        63691
#        106744
#        132288
#        151138
#        174041
#        215504
#        230858
#        269960
#        284424
#        303375
#
# Disc length: 4286 seconds
#
# Revision: 0
# Processed by: cddbd v1.5.2PL0 Copyright (c) Steve Scherf et al.
# Submitted via: ExactAudioCopy v0.99pb4
#
DISCID=c310bc0d
DTITLE=Various Artist - Delmark - 55 Years of Jazz
DYEAR=1900
DGENRE=Blues
TTITLE0=Yves Francois - Lester Leaps In
TTITLE1=Deep Blue Organ Trio - Goin' To Town
TTITLE2=King Curtis - Dynamite at Midnight
TTITLE3=Ted Sirota's Rebel Souls - Saro-Wiwa
TTITLE4=Curtis Fuller - Equinox
TTITLE5=Francine Griffin - It's Crazy
TTITLE6=George Lewis - Doctor Jazz
TTITLE7=Malachi Thompson - Black Metropolis
TTITLE8=Kalaparush - In My Morning Song
TTITLE9=Eric Alexander - Modes for Mabes
TTITLE10=Coleman Hawkins - Bu-De-Daht
TTITLE11=Sun Ra - Brainville
TTITLE12=Art Hodes - Panama Rag
EXTD=
EXTT0=
EXTT1=
EXTT2=
EXTT3=
EXTT4=
EXTT5=
EXTT6=
EXTT7=
EXTT8=
EXTT9=
EXTT10=
EXTT11=
EXTT12=
PLAYORDER=
